<svg width="20" height="19" viewBox="0 0 20 19" fill="none" xmlns="http://www.w3.org/2000/svg">
<path d="M3.58286 5.5328V0.783284C3.58286 0.460856 3.32167 0.199951 2.99953 0.199951C2.67738 0.199951 2.41619 0.460856 2.41619 0.783284V5.5328C1.4127 5.79363 0.666199 6.69904 0.666199 7.78328C0.666199 8.86753 1.4127 9.77293 2.41619 10.0338V18.2833C2.41619 18.6057 2.67738 18.8666 2.99953 18.8666C3.32167 18.8666 3.58286 18.6057 3.58286 18.2833V10.0338C4.58635 9.77293 5.33285 8.86753 5.33285 7.78328C5.33285 6.69904 4.58635 5.79363 3.58286 5.5328Z" fill="#5A5A89"/>
<path d="M10.5829 9.61613V0.783284C10.5829 0.460856 10.3217 0.199951 9.99952 0.199951C9.67738 0.199951 9.41619 0.460856 9.41619 0.783284V9.61613C8.4127 9.87697 7.6662 10.7824 7.6662 11.8666C7.6662 12.9509 8.4127 13.8563 9.41619 14.1171V18.2833C9.41619 18.6057 9.67738 18.8666 9.99952 18.8666C10.3217 18.8666 10.5829 18.6057 10.5829 18.2833V14.1171C11.5863 13.8563 12.3328 12.9509 12.3328 11.8666C12.3328 10.7824 11.5863 9.87697 10.5829 9.61613Z" fill="#5A5A89"/>
<path d="M19.3328 7.78328C19.3328 6.69904 18.5863 5.79363 17.5829 5.5328V0.783284C17.5829 0.460856 17.3217 0.199951 16.9995 0.199951C16.6774 0.199951 16.4162 0.460856 16.4162 0.783284V5.5328C15.4127 5.79363 14.6662 6.69904 14.6662 7.78328C14.6662 8.86753 15.4127 9.77293 16.4162 10.0338V18.2833C16.4162 18.6057 16.6774 18.8666 16.9995 18.8666C17.3217 18.8666 17.5829 18.6057 17.5829 18.2833V10.0338C18.5863 9.77293 19.3328 8.86753 19.3328 7.78328Z" fill="#5A5A89"/>
</svg>
