<svg width="134" height="134" viewBox="0 0 134 134" fill="none" xmlns="http://www.w3.org/2000/svg">
<g clip-path="url(#clip0)">
<path d="M133.5 67C133.5 78.419 130.623 89.1648 125.55 98.5535C124.258 100.953 122.819 103.263 121.248 105.472C109.199 122.434 89.3902 133.5 67 133.5C51.9167 133.5 38.0115 128.481 26.8558 120.018C24.4101 118.167 22.0977 116.148 19.9344 113.979C17.3123 111.351 14.9074 108.507 12.7524 105.472C11.1808 103.263 9.7422 100.953 8.45013 98.5537C3.37716 89.1648 0.5 78.419 0.5 67C0.5 48.6595 7.92358 32.0509 19.9344 20.0211C22.0977 17.8523 24.4101 15.8329 26.8558 13.9818C38.0115 5.51867 51.9167 0.5 67 0.5C103.727 0.5 133.5 30.273 133.5 67Z" fill="#FD5959"/>
<path d="M123.657 57.157C123.657 66.8857 121.206 76.0411 116.884 84.0401C115.783 86.0845 114.557 88.0524 113.218 89.9347C102.953 104.385 86.0761 113.814 67.0002 113.814C54.1493 113.814 42.3025 109.538 32.7981 102.328C30.7146 100.75 28.7442 99.0301 26.9012 97.1822C24.6672 94.9438 22.6185 92.5202 20.7824 89.9347C19.4436 88.0524 18.218 86.0845 17.1171 84.0401C12.7949 76.0411 10.3438 66.8857 10.3438 57.157C10.3438 41.531 16.6685 27.3811 26.9015 17.1318C28.7445 15.284 30.7148 13.5636 32.7984 11.9863C42.3025 4.77574 54.1493 0.5 67.0002 0.5C98.291 0.5 123.657 25.8661 123.657 57.157Z" fill="#FD5959"/>
<path d="M26.0492 103.834L21.4487 100.951L42.8298 66.8239L70.1512 42.8174L95.6219 49.3388L120.501 12.0383L125.018 15.0503L98.0032 55.5516L71.5814 48.7871L47.0089 70.3783L26.0492 103.834Z" fill="#F0F0F0"/>
<path d="M26.856 0.5V120.018C24.4103 118.167 22.0979 116.148 19.9346 113.979V0.5H26.856Z" fill="#343A6E"/>
<path d="M125.55 98.5536C124.258 100.953 122.819 103.263 121.248 105.472H12.7524C11.1809 103.263 9.74227 100.953 8.4502 98.5536H125.55Z" fill="#343A6E"/>
<path d="M44.9196 75.1161C48.5172 75.1161 51.4335 72.1998 51.4335 68.6023C51.4335 65.0047 48.5172 62.0884 44.9196 62.0884C41.3221 62.0884 38.4058 65.0047 38.4058 68.6023C38.4058 72.1998 41.3221 75.1161 44.9196 75.1161Z" fill="#F9DF73"/>
<path d="M70.8654 52.3156C74.463 52.3156 77.3793 49.3992 77.3793 45.8017C77.3793 42.2042 74.463 39.2878 70.8654 39.2878C67.2679 39.2878 64.3516 42.2042 64.3516 45.8017C64.3516 49.3992 67.2679 52.3156 70.8654 52.3156Z" fill="#F9DF73"/>
<path d="M96.8142 58.9604C100.412 58.9604 103.328 56.044 103.328 52.4465C103.328 48.849 100.412 45.9326 96.8142 45.9326C93.2167 45.9326 90.3003 48.849 90.3003 52.4465C90.3003 56.044 93.2167 58.9604 96.8142 58.9604Z" fill="#F9DF73"/>
<path d="M122.76 20.0593C126.357 20.0593 129.274 17.1428 129.274 13.5452C129.274 9.94752 126.357 7.03104 122.76 7.03104C119.162 7.03104 116.246 9.94752 116.246 13.5452C116.246 17.1428 119.162 20.0593 122.76 20.0593Z" fill="#F9DF73"/>
</g>
<defs>
<clipPath id="clip0">
<rect width="133" height="133" fill="white" transform="translate(0.5 0.5)"/>
</clipPath>
</defs>
</svg>
